<?xml version="1.0" encoding="UTF-8"?><svg id="a" xmlns="http://www.w3.org/2000/svg" viewBox="0 0 35.36 39.11"><path d="m27.07,26.56c.13-.13.22-.32.22-.52V6.25c0-.41-.33-.74-.74-.74h-15.75c-1.49,0-2.71,1.21-2.71,2.71v19.79c0,1.49,1.21,2.71,2.71,2.71h15.75c.3,0,.57-.18.68-.46.11-.28.05-.59-.16-.8-.8-.8-.8-2.1,0-2.89h0ZM12.51,6.98h13.29v18.31h-13.29V6.98Zm-1.72,0h.25v18.31h-.25c-.44,0-.86.11-1.23.3V8.22c0-.68.55-1.23,1.23-1.23h0Zm14.42,22.25h-14.42c-.68,0-1.23-.55-1.23-1.23s.55-1.23,1.23-1.23h14.42c-.29.79-.29,1.67,0,2.46Z"/><path d="m17.68,12.99h2.95c.41,0,.74-.33.74-.74s-.33-.74-.74-.74h-2.95c-.41,0-.74.33-.74.74s.33.74.74.74Z"/><path d="m23.59,8.56h-8.86c-.41,0-.74.33-.74.74v5.91c0,.41.33.74.74.74h8.86c.41,0,.74-.33.74-.74v-5.91c0-.41-.33-.74-.74-.74Zm-.74,5.91h-7.38v-4.43h7.38v4.43Z"/><path d="m23.59,19.39h-8.86c-.41,0-.74.33-.74.74s.33.74.74.74h8.86c.41,0,.74-.33.74-.74s-.33-.74-.74-.74Z"/><path d="m23.59,22.34h-8.86c-.41,0-.74.33-.74.74s.33.74.74.74h8.86c.41,0,.74-.33.74-.74s-.33-.74-.74-.74Z"/></svg>