<?xml version="1.0" encoding="UTF-8"?><svg id="a" xmlns="http://www.w3.org/2000/svg" viewBox="0 0 67.76 81.34"><path d="m57.55,61.36c.35-.35.56-.83.56-1.36V8.46c0-1.06-.86-1.92-1.92-1.92H15.17c-3.89,0-7.05,3.16-7.05,7.05v51.54c0,3.89,3.16,7.05,7.05,7.05h41.03c.78,0,1.48-.47,1.78-1.19.3-.72.13-1.55-.42-2.1-2.08-2.08-2.08-5.46,0-7.54h0ZM19.65,10.38h34.62v47.69H19.65V10.38Zm-4.49,0h.64v47.69h-.64c-1.15,0-2.24.28-3.21.77V13.59c0-1.77,1.44-3.21,3.21-3.21h0Zm37.56,57.95H15.17c-1.77,0-3.21-1.44-3.21-3.21s1.44-3.21,3.21-3.21h37.56c-.77,2.06-.77,4.35,0,6.41Z"/><path d="m33.11,26.02h7.69c1.06,0,1.92-.86,1.92-1.92s-.86-1.92-1.92-1.92h-7.69c-1.06,0-1.92.86-1.92,1.92s.86,1.92,1.92,1.92Z"/><path d="m48.5,14.48h-23.08c-1.06,0-1.92.86-1.92,1.92v15.38c0,1.06.86,1.92,1.92,1.92h23.08c1.06,0,1.92-.86,1.92-1.92v-15.38c0-1.06-.86-1.92-1.92-1.92Zm-1.92,15.38h-19.23v-11.54h19.23v11.54Z"/><path d="m48.5,42.69h-23.08c-1.06,0-1.92.86-1.92,1.92s.86,1.92,1.92,1.92h23.08c1.06,0,1.92-.86,1.92-1.92s-.86-1.92-1.92-1.92Z"/><path d="m48.5,50.38h-23.08c-1.06,0-1.92.86-1.92,1.92s.86,1.92,1.92,1.92h23.08c1.06,0,1.92-.86,1.92-1.92s-.86-1.92-1.92-1.92Z"/></svg>